<svg xmlns="http://www.w3.org/2000/svg" width="244.76" height="51.155" viewBox="0 0 244.76 51.155">
  <g id="Group_1" data-name="Group 1" transform="translate(-193.301 -12)">
    <g id="overland3" transform="translate(193.301 12)">
      <circle id="Ellipse_4" data-name="Ellipse 4" cx="25.518" cy="25.518" r="25.518" fill="#373435"/>
      <ellipse id="Ellipse_5" data-name="Ellipse 5" cx="22.401" cy="23.128" rx="22.401" ry="23.128" transform="translate(3.117 2.39)" fill="#fefefe"/>
      <ellipse id="Ellipse_6" data-name="Ellipse 6" cx="3.86" cy="3.563" rx="3.86" ry="3.563" transform="translate(21.659 21.955)" fill="#00b07a"/>
      <path id="Path_3" data-name="Path 3" d="M3609.429,884.533H3606.8L3595,859h3.132l9.263,20.456a10.036,10.036,0,0,1,.772,2.36h.089a12.694,12.694,0,0,1,.861-2.4L3618.781,859h3.073Zm17.339,0V859h15.676v2.034H3629.6v9.6h11.906v1.989H3629.6v9.887h13.583v2.019Zm40.7,0-4.765-7.363a9.974,9.974,0,0,0-2.717-2.969,6.31,6.31,0,0,0-3.429-.846h-3.682v11.178h-2.821V859h9.263a13.533,13.533,0,0,1,4.854.831,7.83,7.83,0,0,1,3.385,2.346,5.576,5.576,0,0,1,1.2,3.548,5.907,5.907,0,0,1-1.959,4.5,10.466,10.466,0,0,1-5.493,2.434v.074a5.608,5.608,0,0,1,2.152,1.321,14.351,14.351,0,0,1,2,2.523l5.285,7.957Zm-14.592-23.5v10.3h5.433a9.238,9.238,0,0,0,5.448-1.455,4.631,4.631,0,0,0,2.078-3.978,4.144,4.144,0,0,0-1.855-3.578,9.317,9.317,0,0,0-5.344-1.291Zm23.662,23.5V859h2.82v23.514h13.049v2.019Zm42.531,0-3.622-7.63h-13.969l-3.533,7.63h-3.132L3707.123,859h2.835l12.247,25.533Zm-10.57-22.98h-.089a8.406,8.406,0,0,1-.356,1.143q-.245.557-5.612,12.173h12.069l-5.344-11.475A9.508,9.508,0,0,1,3708.5,861.553Zm41.343,22.98L3731.5,864a12.336,12.336,0,0,1-1.233-1.6h-.089a15.664,15.664,0,0,1,.089,2.019v20.115h-2.835V859h2.94l18.081,20.293a20.791,20.791,0,0,1,1.306,1.692h.148a25.944,25.944,0,0,1-.178-2.746V859h2.85v25.533Zm11.163,0V859h8.432c5.492,0,9.664,1.054,12.485,3.162s4.246,5.181,4.246,9.263a11.625,11.625,0,0,1-2.108,6.9,13.27,13.27,0,0,1-6.027,4.6,23.6,23.6,0,0,1-9.026,1.6Zm2.805-23.5v21.48h5.018q6.88,0,10.629-2.85a9.682,9.682,0,0,0,3.741-8.165q0-10.465-14.013-10.465Z" transform="translate(-3541.633 -846.248)" fill="#373435"/>
      <path id="Path_4" data-name="Path 4" d="M9090,2972.037V2965.1h2.33c3.014,0,4.513,1.128,4.513,3.385a3.041,3.041,0,0,1-1.291,2.568,5.357,5.357,0,0,1-3.325.98Zm.936-6.22v5.522h1.307a4.3,4.3,0,0,0,2.672-.742,2.556,2.556,0,0,0,.951-2.092c0-1.8-1.188-2.687-3.564-2.687Zm8.565,6.22h-.936V2965.1h.936Zm1.87-1.2a3.618,3.618,0,0,0,1.069.445,4.592,4.592,0,0,0,1.217.163c1.247,0,1.871-.356,1.871-1.1a.829.829,0,0,0-.194-.549,1.511,1.511,0,0,0-.5-.4c-.208-.118-.654-.312-1.308-.594a6.093,6.093,0,0,1-1.678-.92,1.323,1.323,0,0,1-.459-1.054,1.49,1.49,0,0,1,.846-1.336,4.219,4.219,0,0,1,2.108-.49,4.784,4.784,0,0,1,1.811.238v.875a4.043,4.043,0,0,0-1.93-.416,2.887,2.887,0,0,0-1.337.282.875.875,0,0,0-.148,1.514,6.4,6.4,0,0,0,1.515.742,5.311,5.311,0,0,1,1.8,1.024,1.466,1.466,0,0,1,.476,1.039,1.5,1.5,0,0,1-.8,1.365,4.3,4.3,0,0,1-2.226.475,7.081,7.081,0,0,1-1.129-.1,3.575,3.575,0,0,1-1-.282Zm12.679.906a6.14,6.14,0,0,1-2.361.4,4.289,4.289,0,0,1-2.909-.95,3.166,3.166,0,0,1-1.1-2.493,3.363,3.363,0,0,1,1.217-2.657,4.639,4.639,0,0,1,3.133-1.039,6.021,6.021,0,0,1,2.02.282v.817a5.027,5.027,0,0,0-2.035-.4,3.416,3.416,0,0,0-2.434.831,2.732,2.732,0,0,0-.905,2.123,2.645,2.645,0,0,0,.845,2.034,3.359,3.359,0,0,0,2.287.772,5.043,5.043,0,0,0,2.242-.46Zm1.022-3.088a3.385,3.385,0,0,1,1.115-2.657,4.367,4.367,0,0,1,3.042-.995,4.17,4.17,0,0,1,2.851.965,3.257,3.257,0,0,1,1.084,2.509,3.458,3.458,0,0,1-1.1,2.672,4.242,4.242,0,0,1-2.984.995,4.16,4.16,0,0,1-2.894-.965A3.212,3.212,0,0,1,9115.072,2968.652Zm1-.074a2.857,2.857,0,0,0,.816,2.078,3.01,3.01,0,0,0,2.2.8,3.144,3.144,0,0,0,2.271-.772,2.69,2.69,0,0,0,.816-2.093,2.784,2.784,0,0,0-.786-2.123,3.01,3.01,0,0,0-2.227-.772,3.059,3.059,0,0,0-2.241.817A2.727,2.727,0,0,0,9116.067,2968.578Zm15.112-3.474-3.191,6.933h-1.025l-3.116-6.933h1.054l2.4,5.537a2.293,2.293,0,0,1,.164.609h.03a2.648,2.648,0,0,1,.191-.609l2.465-5.537Zm5.746,6.933h-4.5V2965.1h4.3v.712h-3.369v2.345h3.117v.7h-3.117v2.479h3.563Zm7.732,0h-1.128l-1.438-1.959a3.017,3.017,0,0,0-.832-.816,1.776,1.776,0,0,0-.876-.193h-.86v2.969h-.936V2965.1h2.523a3.158,3.158,0,0,1,1.886.5,1.557,1.557,0,0,1,.683,1.351c0,.95-.624,1.574-1.886,1.856v.015a1.764,1.764,0,0,1,.593.341,6.656,6.656,0,0,1,.669.787Zm-5.135-6.22v2.553h1.411a2.034,2.034,0,0,0,1.274-.386,1.136,1.136,0,0,0,.49-.965,1.019,1.019,0,0,0-.46-.891,2.244,2.244,0,0,0-1.291-.312Zm15.749,6.22h-1.039l-.935-1.974h-3.666l-.877,1.974h-1.039l3.3-6.933h.95Zm-2.286-2.672-1.365-2.984a1.389,1.389,0,0,1-.133-.46h-.031a3.06,3.06,0,0,1-.133.46l-1.366,2.984Zm9.635,2.672h-1.129l-1.439-1.959a3,3,0,0,0-.831-.816,1.772,1.772,0,0,0-.875-.193h-.847v2.969h-.95V2965.1h2.524a3.149,3.149,0,0,1,1.884.5,1.568,1.568,0,0,1,.7,1.351c0,.95-.638,1.574-1.9,1.856v.015a1.778,1.778,0,0,1,.594.341,6.753,6.753,0,0,1,.669.787Zm-5.121-6.22v2.553h1.395a2.006,2.006,0,0,0,1.276-.386,1.136,1.136,0,0,0,.492-.965,1.02,1.02,0,0,0-.462-.891,2.242,2.242,0,0,0-1.291-.312Zm14.043,6.22v-4.676a12.194,12.194,0,0,1,.089-1.336h-.03a3.273,3.273,0,0,1-.251.653l-2.984,5.359h-.416l-2.984-5.329a3.241,3.241,0,0,1-.25-.683h-.017a10.855,10.855,0,0,1,.044,1.321v4.691h-.919V2965.1h1.231l2.673,4.884a4.743,4.743,0,0,1,.4.817h.044a6.431,6.431,0,0,1,.416-.846l2.746-4.854h1.158v6.933Zm7.719,0h-4.513V2965.1h4.319v.712H9175.7v2.345h3.1v.7h-3.1v2.479h3.563Zm8.508,0H9186.6l-4.468-5.6a1.617,1.617,0,0,1-.282-.43h-.03a6.731,6.731,0,0,1,.045.95v5.077h-.936V2965.1h1.247l4.35,5.522c.192.253.313.4.341.446h.016a5.92,5.92,0,0,1-.06-1.024V2965.1h.951Zm3.219,0h-.934V2965.1h.934Zm8.834,0h-1.04l-.935-1.974h-3.665l-.861,1.974h-1.056l3.3-6.933h.951Zm-2.287-2.672-1.364-2.984a1.387,1.387,0,0,1-.134-.46h-.03a3.031,3.031,0,0,1-.134.46l-1.365,2.984Z" transform="translate(-8955.062 -2920.985)" fill="#00b07a"/>
    </g>
  </g>
</svg>
